<?xml version="1.0" encoding="UTF-8" standalone="no"?><!DOCTYPE svg PUBLIC "-//W3C//DTD SVG 1.1//EN" "http://www.w3.org/Graphics/SVG/1.1/DTD/svg11.dtd"><svg width="100%" height="100%" viewBox="0 0 1180 221" version="1.1" xmlns="http://www.w3.org/2000/svg" xmlns:xlink="http://www.w3.org/1999/xlink" xml:space="preserve" xmlns:serif="http://www.serif.com/" style="fill-rule:evenodd;clip-rule:evenodd;"><g><path d="M141.759,74.084c-5.5,15.271 -16.788,28.462 -32.592,36.004l-0.192,0.092l-0.191,0.095l-0.1,0.046l-0.092,0.046l-0.479,0.229l-0.096,0.042l-0.192,0.092l-0.096,0.041l-0.095,0.046l-0.1,0.042l-0.096,0.046l-0.096,0.041l-0.096,0.046l-0.192,0.083l-0.095,0.046l-0.096,0.042l-0.092,0.046l-0.004,-0l-0.096,0.037l-0.287,0.125l-0.096,0.046l-0.096,0.038l-0.192,0.083l-0.1,0.042l-0.096,0.041l-0.095,0.038l-0.192,0.083l-0.1,0.042l-0.096,0.037l-0.092,0.038l-0.004,-0l-0.091,0.041l-0.192,0.075l-0.096,0.042l-0.096,0.038l-0.096,0.041l-0.133,-0.012l-0.192,0.075l-0.096,0.041l-0.191,0.075l-0.1,0.038l-0.096,0.037l-0.096,0.034l-0.1,0.037l-0.096,0.038l-0.1,0.037l-0.096,0.038l-0.095,0.033l-0.096,0.038l-0.004,-0l-0.096,0.033l-0.1,0.037c4.844,5.735 10.656,10.576 17.171,14.305c0.266,-0.055 0.529,-0.109 0.787,-0.167l0.317,-0.075c0.275,-0.058 0.554,-0.125 0.825,-0.192l0.266,-0.071c0.279,-0.069 0.557,-0.141 0.834,-0.216l0.2,-0.054c0.291,-0.084 0.579,-0.167 0.871,-0.255l0.295,-0.087c0.28,-0.088 0.563,-0.175 0.842,-0.267l0.179,-0.058c0.329,-0.108 0.663,-0.225 0.996,-0.342l0.046,-0.016c0.329,-0.117 0.654,-0.242 0.979,-0.367l0.167,-0.067c0.321,-0.121 0.637,-0.254 0.954,-0.383l0.046,-0.021l0.004,-0l0.033,-0.012c0.345,-0.143 0.688,-0.29 1.029,-0.442l0.013,-0.004l0.079,-0.042c0.653,-0.287 1.298,-0.593 1.933,-0.917l0.184,-0.095c0.3,-0.146 0.596,-0.305 0.887,-0.463l0.175,-0.087c0.292,-0.163 0.588,-0.325 0.871,-0.488l0.05,-0.029l0.071,-0.046c0.279,-0.158 0.554,-0.321 0.825,-0.483l0.162,-0.1c0.284,-0.171 0.563,-0.346 0.842,-0.521l0.15,-0.1c0.288,-0.183 0.571,-0.371 0.85,-0.563l0.117,-0.083c0.25,-0.171 0.496,-0.342 0.746,-0.521l0.162,-0.112c0.263,-0.188 0.525,-0.384 0.783,-0.575l0.15,-0.113c0.259,-0.196 0.517,-0.396 0.771,-0.596l0.175,-0.141c0.217,-0.171 0.43,-0.346 0.638,-0.521l0.237,-0.2c0.209,-0.175 0.417,-0.354 0.617,-0.533l0.204,-0.175c0.229,-0.205 0.45,-0.409 0.675,-0.613l0.2,-0.187c0.213,-0.196 0.421,-0.396 0.629,-0.596l0.725,-0.725l0.192,-0.196c0.204,-0.208 0.404,-0.421 0.6,-0.629l0.217,-0.238c0.196,-0.208 0.387,-0.421 0.575,-0.625l0.233,-0.266l0.371,-0.43l0.275,-0.325c0.166,-0.2 0.333,-0.4 0.496,-0.604l0.233,-0.291l0.483,-0.617l0.234,-0.304l0.337,-0.446l0.388,-0.538l0.258,-0.362l0.292,-0.425l0.387,-0.579l0.254,-0.396l0.259,-0.404l0.354,-0.575l0.241,-0.396l0.246,-0.413l0.359,-0.629l0.233,-0.425l0.208,-0.375l0.35,-0.675l0.154,-0.3l0.23,-0.462l0.279,-0.584l0.021,-0.041l0.212,-0.454l0.171,-0.375l0.342,-0.784l0.104,-0.254c0.116,-0.279 0.233,-0.567 0.346,-0.854l0.104,-0.258c0.212,-0.555 0.416,-1.105 0.608,-1.663l0.088,-0.267c0.108,-0.316 0.212,-0.633 0.316,-0.958l0.046,-0.154l0.175,-0.571l0.179,-0.625l0.167,-0.617l0.008,-0.02c0.092,-0.35 0.179,-0.705 0.267,-1.063l0.075,-0.317l0.108,-0.491l0.138,-0.629c-3.666,-6.553 -8.469,-12.401 -14.184,-17.271l0.001,-0Z" style="fill:#cbbc4c;fill-rule:nonzero;"/></g><g><path d="M141.759,74.084c-5.5,15.271 -16.788,28.462 -32.592,36.004l-0.192,0.092l-0.191,0.095l-0.1,0.046l-0.092,0.046l-0.479,0.229l-0.096,0.042l-0.192,0.092l-0.096,0.041l-0.095,0.046l-0.1,0.042l-0.096,0.046l-0.096,0.041l-0.096,0.046l-0.192,0.083l-0.095,0.046l-0.096,0.042l-0.092,0.046l-0.004,-0l-0.096,0.037l-0.287,0.125l-0.096,0.046l-0.096,0.038l-0.192,0.083l-0.1,0.042l-0.096,0.041l-0.095,0.038l-0.192,0.083l-0.1,0.042l-0.096,0.037l-0.092,0.038l-0.004,-0l-0.091,0.041l-0.192,0.075l-0.096,0.042l-0.096,0.038l-0.096,0.041l-0.133,-0.012l-0.192,0.075l-0.096,0.041l-0.191,0.075l-0.1,0.038l-0.096,0.037l-0.096,0.034l-0.1,0.037l-0.096,0.038l-0.1,0.037l-0.096,0.038l-0.095,0.033l-0.096,0.038l-0.004,-0l-0.096,0.033l-0.1,0.037c4.844,5.735 10.656,10.576 17.171,14.305c0.266,-0.055 0.529,-0.109 0.787,-0.167l0.317,-0.075c0.275,-0.058 0.554,-0.125 0.825,-0.192l0.266,-0.071c0.279,-0.069 0.557,-0.141 0.834,-0.216l0.2,-0.054c0.291,-0.084 0.579,-0.167 0.871,-0.255l0.295,-0.087c0.28,-0.088 0.563,-0.175 0.842,-0.267l0.179,-0.058c0.329,-0.108 0.663,-0.225 0.996,-0.342l0.046,-0.016c0.329,-0.117 0.654,-0.242 0.979,-0.367l0.167,-0.067c0.321,-0.121 0.637,-0.254 0.954,-0.383l0.046,-0.021l0.004,-0l0.033,-0.012c0.345,-0.143 0.688,-0.29 1.029,-0.442l0.013,-0.004l0.079,-0.042c0.653,-0.287 1.298,-0.593 1.933,-0.917l0.184,-0.095c0.3,-0.146 0.596,-0.305 0.887,-0.463l0.175,-0.087c0.292,-0.163 0.588,-0.325 0.871,-0.488l0.05,-0.029l0.071,-0.046c0.279,-0.158 0.554,-0.321 0.825,-0.483l0.162,-0.1c0.284,-0.171 0.563,-0.346 0.842,-0.521l0.15,-0.1c0.288,-0.183 0.571,-0.371 0.85,-0.563l0.117,-0.083c0.25,-0.171 0.496,-0.342 0.746,-0.521l0.162,-0.112c0.263,-0.188 0.525,-0.384 0.783,-0.575l0.15,-0.113c0.259,-0.196 0.517,-0.396 0.771,-0.596l0.175,-0.141c0.217,-0.171 0.43,-0.346 0.638,-0.521l0.237,-0.2c0.209,-0.175 0.417,-0.354 0.617,-0.533l0.204,-0.175c0.229,-0.205 0.45,-0.409 0.675,-0.613l0.2,-0.187c0.213,-0.196 0.421,-0.396 0.629,-0.596l0.725,-0.725l0.192,-0.196c0.204,-0.208 0.404,-0.421 0.6,-0.629l0.217,-0.238c0.196,-0.208 0.387,-0.421 0.575,-0.625l0.233,-0.266l0.371,-0.43l0.275,-0.325c0.166,-0.2 0.333,-0.4 0.496,-0.604l0.233,-0.291l0.483,-0.617l0.234,-0.304l0.337,-0.446l0.388,-0.538l0.258,-0.362l0.292,-0.425l0.387,-0.579l0.254,-0.396l0.259,-0.404l0.354,-0.575l0.241,-0.396l0.246,-0.413l0.359,-0.629l0.233,-0.425l0.208,-0.375l0.35,-0.675l0.154,-0.3l0.23,-0.462l0.279,-0.584l0.021,-0.041l0.212,-0.454l0.171,-0.375l0.342,-0.784l0.104,-0.254c0.116,-0.279 0.233,-0.567 0.346,-0.854l0.104,-0.258c0.212,-0.555 0.416,-1.105 0.608,-1.663l0.088,-0.267c0.108,-0.316 0.212,-0.633 0.316,-0.958l0.046,-0.154l0.175,-0.571l0.179,-0.625l0.167,-0.617l0.008,-0.02c0.092,-0.35 0.179,-0.705 0.267,-1.063l0.075,-0.317l0.108,-0.491l0.138,-0.629c-3.666,-6.553 -8.469,-12.401 -14.184,-17.271l0.001,-0Z" style="fill:none;fill-rule:nonzero;stroke:#cbbc4c;stroke-width:1px;"/></g><g><path d="M88.942,59.763c15.975,-2.867 33.046,0.304 47.479,10.221l0.263,0.187l0.083,0.059l0.612,0.437l0.088,0.058l0.175,0.125l0.083,0.063l0.175,0.125l0.084,0.058l-0,0.004l0.087,0.063l0.083,0.067l0.088,0.058l-0,0.004l0.083,0.058l0.175,0.125l0.084,0.067l0.333,0.25l0.087,0.063l0.167,0.125l0.083,0.066l0.084,0.063l0.087,0.062l-0,0.004l0.079,0.063l0.005,-0l0.079,0.067l0.004,-0l0.083,0.062l0.167,0.133l0.079,0.067l0.083,0.063l-0,0.004l0.084,0.062l0.079,0.067l0.004,-0l0.079,0.067l0.004,0l0.08,0.062l-0,0.004l0.083,0.063l0.079,0.066l0.083,0.063l-0,0.004l0.163,0.129l0.079,0.067l0.083,0.062l0.475,0.4l0.005,-0l0.079,0.067l0.004,-0l0.075,0.067l0.004,0l0.075,0.066l0.083,0.067l0.08,0.067c2.545,-7.063 3.831,-14.518 3.8,-22.025l-0.03,-0.034l-0.437,-0.487l-0.221,-0.246l-0.421,-0.45l-0.254,-0.262l-0.425,-0.438l-0.237,-0.242l-0.442,-0.441l-0.25,-0.238l-0.479,-0.45l-0.184,-0.171l-0.495,-0.454l-0.292,-0.229l-0.479,-0.421c-0.234,-0.2 -0.463,-0.396 -0.7,-0.596l-0.463,-0.366l-0.287,-0.229l-0.775,-0.6l-0.367,-0.271l-0.412,-0.3l-0.43,-0.304l-0.32,-0.225l-0.488,-0.334l-0.325,-0.216l-0.45,-0.292l-0.4,-0.254l-0.417,-0.259l-0.379,-0.229l-0.454,-0.271l-0.425,-0.241c-0.433,-0.25 -0.867,-0.488 -1.312,-0.721c-0.267,-0.146 -0.534,-0.279 -0.809,-0.417l-0.866,-0.421l-0.871,-0.404c-1.596,-0.709 -3.228,-1.336 -4.888,-1.879c-0.937,-0.298 -1.883,-0.566 -2.837,-0.804l-0.95,-0.229l-0.954,-0.204l-0.996,-0.192c-0.357,-0.068 -0.716,-0.129 -1.075,-0.183c-1.357,-0.216 -2.724,-0.368 -4.096,-0.455c-0.321,-0.025 -0.65,-0.037 -0.971,-0.054c-0.693,-0.032 -1.386,-0.047 -2.079,-0.046c-2.342,-0.05 -4.892,0.209 -7.2,0.584c-0.363,0.054 -0.725,0.121 -1.088,0.187c-2.051,0.386 -4.074,0.911 -6.054,1.571c-3.754,6.321 -6.416,13.371 -7.854,20.913l-0.004,0.008Z" style="fill:#8da09a;fill-rule:nonzero;"/></g><g><path d="M88.942,59.763c15.975,-2.867 33.046,0.304 47.479,10.221l0.263,0.187l0.083,0.059l0.612,0.437l0.088,0.058l0.175,0.125l0.083,0.063l0.175,0.125l0.084,0.058l-0,0.004l0.087,0.063l0.083,0.067l0.088,0.058l-0,0.004l0.083,0.058l0.175,0.125l0.084,0.067l0.333,0.25l0.087,0.063l0.167,0.125l0.083,0.066l0.084,0.063l0.087,0.062l-0,0.004l0.079,0.063l0.005,-0l0.079,0.067l0.004,-0l0.083,0.062l0.167,0.133l0.079,0.067l0.083,0.063l-0,0.004l0.084,0.062l0.079,0.067l0.004,-0l0.079,0.067l0.004,0l0.08,0.062l-0,0.004l0.083,0.063l0.079,0.066l0.083,0.063l-0,0.004l0.163,0.129l0.079,0.067l0.083,0.062l0.475,0.4l0.005,-0l0.079,0.067l0.004,-0l0.075,0.067l0.004,0l0.075,0.066l0.083,0.067l0.08,0.067c2.545,-7.063 3.831,-14.518 3.8,-22.025l-0.03,-0.034l-0.437,-0.487l-0.221,-0.246l-0.421,-0.45l-0.254,-0.262l-0.425,-0.438l-0.237,-0.242l-0.442,-0.441l-0.25,-0.238l-0.479,-0.45l-0.184,-0.171l-0.495,-0.454l-0.292,-0.229l-0.479,-0.421c-0.234,-0.2 -0.463,-0.396 -0.7,-0.596l-0.463,-0.366l-0.287,-0.229l-0.775,-0.6l-0.367,-0.271l-0.412,-0.3l-0.43,-0.304l-0.32,-0.225l-0.488,-0.334l-0.325,-0.216l-0.45,-0.292l-0.4,-0.254l-0.417,-0.259l-0.379,-0.229l-0.454,-0.271l-0.425,-0.241c-0.433,-0.25 -0.867,-0.488 -1.312,-0.721c-0.267,-0.146 -0.534,-0.279 -0.809,-0.417l-0.866,-0.421l-0.871,-0.404c-1.596,-0.709 -3.228,-1.336 -4.888,-1.879c-0.937,-0.298 -1.883,-0.566 -2.837,-0.804l-0.95,-0.229l-0.954,-0.204l-0.996,-0.192c-0.357,-0.068 -0.716,-0.129 -1.075,-0.183c-1.357,-0.216 -2.724,-0.368 -4.096,-0.455c-0.321,-0.025 -0.65,-0.037 -0.971,-0.054c-0.693,-0.032 -1.386,-0.047 -2.079,-0.046c-2.342,-0.05 -4.892,0.209 -7.2,0.584c-0.363,0.054 -0.725,0.121 -1.088,0.187c-2.051,0.386 -4.074,0.911 -6.054,1.571c-3.754,6.321 -6.416,13.371 -7.854,20.913l-0.004,0.008Z" style="fill:none;fill-rule:nonzero;stroke:#8da09a;stroke-width:1px;"/></g><g><path d="M102.95,112.663c-7.079,2.513 -14.547,3.752 -22.058,3.658c-0.275,-0.245 -0.548,-0.494 -0.817,-0.746l-0.008,-0.004c-0.542,-0.507 -1.071,-1.026 -1.588,-1.558l-0.008,-0.004c-0.52,-0.534 -1.025,-1.082 -1.517,-1.642l-0.004,-0.004c-0.25,-0.283 -0.492,-0.567 -0.725,-0.854l-0.008,-0.004c-0.241,-0.287 -0.477,-0.577 -0.709,-0.871l-0.004,-0.004c-0.234,-0.296 -0.464,-0.595 -0.691,-0.896l-0.005,-0.004c-0.229,-0.3 -0.45,-0.609 -0.67,-0.917l-0.005,0c-0.22,-0.308 -0.433,-0.621 -0.65,-0.938l-0.004,-0.004c-0.215,-0.314 -0.425,-0.632 -0.629,-0.954l-0.004,-0.008c-0.208,-0.32 -0.411,-0.644 -0.608,-0.971c-0.196,-0.321 -0.388,-0.645 -0.575,-0.971l-0.025,-0.05c-0.186,-0.323 -0.368,-0.648 -0.546,-0.975l-0.009,-0.017l-0,-0.004l-0.008,-0.016c-0.175,-0.325 -0.346,-0.65 -0.512,-0.98l-0.021,-0.041l-0.017,-0.038c-0.17,-0.337 -0.338,-0.676 -0.504,-1.016c-0.163,-0.342 -0.317,-0.68 -0.467,-1.017l-0.021,-0.038l-0.004,-0.02l-0.037,-0.08c-0.142,-0.316 -0.279,-0.637 -0.417,-0.958l-0.012,-0.037l-0.017,-0.042c-0.138,-0.327 -0.27,-0.656 -0.396,-0.988l-0.025,-0.054l-0.012,-0.046c-0.135,-0.339 -0.263,-0.681 -0.384,-1.025l-0.021,-0.062c-0.112,-0.321 -0.225,-0.638 -0.329,-0.954l-0.029,-0.088l-0.021,-0.071c-0.108,-0.32 -0.212,-0.65 -0.312,-0.975l-0.05,-0.166c-0.092,-0.317 -0.184,-0.625 -0.267,-0.942l-0.033,-0.121c-0.088,-0.329 -0.175,-0.654 -0.259,-0.979l-0.029,-0.133c-0.074,-0.301 -0.146,-0.602 -0.216,-0.904l-0.059,-0.28l-0.171,-0.825l-0.05,-0.258c-0.054,-0.279 -0.104,-0.558 -0.154,-0.837l-0.05,-0.309c-0.041,-0.25 -0.083,-0.496 -0.121,-0.741l-0.058,-0.425l-0.092,-0.688l-0.045,-0.396l-0.084,-0.754l-0.033,-0.358l-0.058,-0.7l-0.03,-0.459l-0,-0.029l-0.029,-0.546l-0.004,-0.054l-0.021,-0.483l-0,-0.013l-0.016,-0.541l-0,-0.059l-0.009,-0.416l-0.004,-0.692l-0,-0.454l0.004,-0.55l0.004,-0.025l0.009,-0.517l0.021,-0.541l0.004,-0.067l0.025,-0.479l0.033,-0.538l0.004,-0.079c0.025,-0.296 0.046,-0.592 0.071,-0.887l0.013,-0.142l0.087,-0.867l0.029,-0.254c0.121,-1.017 0.275,-2.017 0.459,-3.021l0.033,-0.187c0.129,-0.675 0.271,-1.346 0.433,-2.017l0.013,-0.054c0.083,-0.329 0.162,-0.654 0.25,-0.983l0.016,-0.071c0.088,-0.321 0.171,-0.638 0.263,-0.954l0.029,-0.1c0.088,-0.309 0.179,-0.613 0.275,-0.921l0.042,-0.138c0.096,-0.308 0.2,-0.616 0.3,-0.921l0.008,-0.033c6.477,-3.777 13.569,-6.386 20.95,-7.708l-0.017,0.096l-0.02,0.1l-0.017,0.104l-0.021,0.1l-0.033,0.2l-0.017,0.104l-0.017,0.1l-0.016,0.104l-0.017,0.1l-0.029,0.125l-0.017,0.1l-0,0.004l-0.012,0.096l-0,0.004l-0.021,0.1l-0.017,0.104l-0.016,0.1l-0.017,0.105l-0.025,0.208l-0.004,-0l-0.025,0.2l-0,0.004l-0.05,0.3l-0.013,0.1l-0,0.004l-0.012,0.1l-0.025,0.209l-0.038,0.304l-0.012,0.1l-0.009,0.104l-0.012,0.104l-0.013,0.1l-0.025,0.208l-0.012,0.1l-0.042,0.15l-0.037,0.313l-0.009,0.104l-0.012,0.104l-0,0.004l-0.025,0.209l-0.008,0.104l-0.013,0.104l-0.008,0.108l-0.013,0.109l-0.008,0.1l-0.013,0.104l-0.008,0.104l-0.025,0.208l-0.004,0.105l-0.008,0.104l-0.013,0.104l-0.025,0.317l-0.016,0.216l-0.009,0.104c-1.379,17.467 4.404,33.838 14.875,46.238Z" style="fill:#41ac99;fill-rule:nonzero;"/></g><g><path d="M102.95,112.663c-7.079,2.513 -14.547,3.752 -22.058,3.658c-0.275,-0.245 -0.548,-0.494 -0.817,-0.746l-0.008,-0.004c-0.542,-0.507 -1.071,-1.026 -1.588,-1.558l-0.008,-0.004c-0.52,-0.534 -1.025,-1.082 -1.517,-1.642l-0.004,-0.004c-0.25,-0.283 -0.492,-0.567 -0.725,-0.854l-0.008,-0.004c-0.241,-0.287 -0.477,-0.577 -0.709,-0.871l-0.004,-0.004c-0.234,-0.296 -0.464,-0.595 -0.691,-0.896l-0.005,-0.004c-0.229,-0.3 -0.45,-0.609 -0.67,-0.917l-0.005,0c-0.22,-0.308 -0.433,-0.621 -0.65,-0.938l-0.004,-0.004c-0.215,-0.314 -0.425,-0.632 -0.629,-0.954l-0.004,-0.008c-0.208,-0.32 -0.411,-0.644 -0.608,-0.971c-0.196,-0.321 -0.388,-0.645 -0.575,-0.971l-0.025,-0.05c-0.186,-0.323 -0.368,-0.648 -0.546,-0.975l-0.009,-0.017l-0,-0.004l-0.008,-0.016c-0.175,-0.325 -0.346,-0.65 -0.512,-0.98l-0.021,-0.041l-0.017,-0.038c-0.17,-0.337 -0.338,-0.676 -0.504,-1.016c-0.163,-0.342 -0.317,-0.68 -0.467,-1.017l-0.021,-0.038l-0.004,-0.02l-0.037,-0.08c-0.142,-0.316 -0.279,-0.637 -0.417,-0.958l-0.012,-0.037l-0.017,-0.042c-0.138,-0.327 -0.27,-0.656 -0.396,-0.988l-0.025,-0.054l-0.012,-0.046c-0.135,-0.339 -0.263,-0.681 -0.384,-1.025l-0.021,-0.062c-0.112,-0.321 -0.225,-0.638 -0.329,-0.954l-0.029,-0.088l-0.021,-0.071c-0.108,-0.32 -0.212,-0.65 -0.312,-0.975l-0.05,-0.166c-0.092,-0.317 -0.184,-0.625 -0.267,-0.942l-0.033,-0.121c-0.088,-0.329 -0.175,-0.654 -0.259,-0.979l-0.029,-0.133c-0.074,-0.301 -0.146,-0.602 -0.216,-0.904l-0.059,-0.28l-0.171,-0.825l-0.05,-0.258c-0.054,-0.279 -0.104,-0.558 -0.154,-0.837l-0.05,-0.309c-0.041,-0.25 -0.083,-0.496 -0.121,-0.741l-0.058,-0.425l-0.092,-0.688l-0.045,-0.396l-0.084,-0.754l-0.033,-0.358l-0.058,-0.7l-0.03,-0.459l-0,-0.029l-0.029,-0.546l-0.004,-0.054l-0.021,-0.483l-0,-0.013l-0.016,-0.541l-0,-0.059l-0.009,-0.416l-0.004,-0.692l-0,-0.454l0.004,-0.55l0.004,-0.025l0.009,-0.517l0.021,-0.541l0.004,-0.067l0.025,-0.479l0.033,-0.538l0.004,-0.079c0.025,-0.296 0.046,-0.592 0.071,-0.887l0.013,-0.142l0.087,-0.867l0.029,-0.254c0.121,-1.017 0.275,-2.017 0.459,-3.021l0.033,-0.187c0.129,-0.675 0.271,-1.346 0.433,-2.017l0.013,-0.054c0.083,-0.329 0.162,-0.654 0.25,-0.983l0.016,-0.071c0.088,-0.321 0.171,-0.638 0.263,-0.954l0.029,-0.1c0.088,-0.309 0.179,-0.613 0.275,-0.921l0.042,-0.138c0.096,-0.308 0.2,-0.616 0.3,-0.921l0.008,-0.033c6.477,-3.777 13.569,-6.386 20.95,-7.708l-0.017,0.096l-0.02,0.1l-0.017,0.104l-0.021,0.1l-0.033,0.2l-0.017,0.104l-0.017,0.1l-0.016,0.104l-0.017,0.1l-0.029,0.125l-0.017,0.1l-0,0.004l-0.012,0.096l-0,0.004l-0.021,0.1l-0.017,0.104l-0.016,0.1l-0.017,0.105l-0.025,0.208l-0.004,-0l-0.025,0.2l-0,0.004l-0.05,0.3l-0.013,0.1l-0,0.004l-0.012,0.1l-0.025,0.209l-0.038,0.304l-0.012,0.1l-0.009,0.104l-0.012,0.104l-0.013,0.1l-0.025,0.208l-0.012,0.1l-0.042,0.15l-0.037,0.313l-0.009,0.104l-0.012,0.104l-0,0.004l-0.025,0.209l-0.008,0.104l-0.013,0.104l-0.008,0.108l-0.013,0.109l-0.008,0.1l-0.013,0.104l-0.008,0.104l-0.025,0.208l-0.004,0.105l-0.008,0.104l-0.013,0.104l-0.025,0.317l-0.016,0.216l-0.009,0.104c-1.379,17.467 4.404,33.838 14.875,46.238Z" style="fill:none;fill-rule:nonzero;stroke:#41ac99;stroke-width:1px;"/></g><g><path d="M96.8,38.842c-1.789,0.598 -3.539,1.307 -5.241,2.121c-11.567,5.521 -19.746,15.275 -23.567,26.517c6.484,-3.775 13.576,-6.394 20.958,-7.738c1.362,-7.376 4.019,-14.452 7.85,-20.9Z" style="fill:#0098da;fill-rule:nonzero;"/></g><g><path d="M96.8,38.842c-1.789,0.598 -3.539,1.307 -5.241,2.121c-11.567,5.521 -19.746,15.275 -23.567,26.517c6.484,-3.775 13.576,-6.394 20.958,-7.738c1.362,-7.376 4.019,-14.452 7.85,-20.9Z" style="fill:none;fill-rule:nonzero;stroke:#0098da;stroke-width:1px;"/></g><g><path d="M88.942,59.763c-0.407,2.207 -0.699,4.434 -0.875,6.671c-1.371,17.458 4.412,33.829 14.883,46.225c2.115,-0.753 4.19,-1.612 6.217,-2.575c15.804,-7.542 27.092,-20.734 32.592,-36.004c-1.708,-1.456 -3.489,-2.824 -5.338,-4.096c-14.433,-9.917 -31.5,-13.088 -47.479,-10.221" style="fill:#60c3b2;fill-rule:nonzero;"/></g><g><path d="M155.95,91.342c2.011,-9.736 0.773,-19.867 -3.521,-28.833c-1.804,-3.792 -4.123,-7.317 -6.891,-10.475c0.053,7.512 -1.231,14.975 -3.792,22.037l0.017,0.013c5.709,4.872 10.512,10.714 14.187,17.258Z" style="fill:#faa954;fill-rule:nonzero;"/></g><g><path d="M155.95,91.342c2.011,-9.736 0.773,-19.867 -3.521,-28.833c-1.804,-3.792 -4.123,-7.317 -6.891,-10.475c0.053,7.512 -1.231,14.975 -3.792,22.037l0.017,0.013c5.709,4.872 10.512,10.714 14.187,17.258Z" style="fill:none;fill-rule:nonzero;stroke:#faa954;stroke-width:1px;"/></g><g><path d="M103.1,112.613c-7.391,2.617 -14.85,3.8 -22.162,3.746c10.6,9.354 25.087,13.396 39.154,10.608c-6.5,-3.739 -12.301,-8.581 -17.142,-14.308l0.1,-0.038l0.096,-0.033l0.004,0l0.096,-0.038l-0.146,0.063Z" style="fill:#95c949;fill-rule:nonzero;"/></g><g><path d="M103.1,112.613c-7.391,2.617 -14.85,3.8 -22.162,3.746c10.6,9.354 25.087,13.396 39.154,10.608c-6.5,-3.739 -12.301,-8.581 -17.142,-14.308l0.1,-0.038l0.096,-0.033l0.004,0l0.096,-0.038l-0.146,0.063Z" style="fill:none;fill-rule:nonzero;stroke:#95c949;stroke-width:1px;"/></g><g><path d="M69.404,19.63c-2.724,-2.744 -6.437,-4.287 -10.304,-4.28c-3.867,-0.007 -7.58,1.535 -10.304,4.28c-2.743,2.77 -4.279,6.518 -4.267,10.416c-0,4.079 1.634,7.763 4.267,10.417c2.723,2.748 6.436,4.293 10.304,4.287c4.029,0 7.675,-1.641 10.304,-4.287c2.634,-2.654 4.263,-6.338 4.263,-10.417c-0,-4.079 -1.629,-7.762 -4.263,-10.416" style="fill:#0098da;fill-rule:nonzero;"/></g><g><path d="M30.946,64.563c1.038,-4.804 5.775,-7.863 10.583,-6.825c4.805,1.037 7.863,5.779 6.821,10.583c-1.883,8.563 -1.979,17.054 -0.537,25.084c1.499,8.354 4.627,16.332 9.204,23.479c2.391,3.736 4.159,7.217 7.262,10.387c0.155,0.125 0.3,0.259 0.442,0.404c0.15,0.146 1.292,1.305 1.421,1.463c2.565,2.525 5.337,3.83 8.287,5.892c6.684,4.662 14.417,8.125 22.95,10c8.563,1.883 17.055,1.983 25.084,0.541c8.351,-1.501 16.326,-4.63 23.47,-9.208c7.134,-4.558 13.3,-10.476 18.146,-17.417c4.663,-6.683 8.134,-14.416 10.004,-22.946c1.884,-8.562 1.98,-17.054 0.542,-25.083c-1.503,-8.35 -4.63,-16.325 -9.204,-23.471c-4.559,-7.135 -10.479,-13.303 -17.421,-18.15c-6.683,-4.666 -14.412,-8.129 -22.942,-10.004c-4.754,-1.042 -9.404,-1.542 -13.895,-1.542c-4.652,0.008 -9.289,0.521 -13.83,1.53c-4.787,1.058 -9.525,-1.967 -10.587,-6.755c-1.047,-4.756 2.003,-9.532 6.758,-10.583c5.8,-1.285 11.722,-1.936 17.663,-1.942c5.912,-0.004 11.829,0.605 17.654,1.888c10.534,2.312 20.509,6.681 29.35,12.858c8.853,6.187 16.403,14.056 22.217,23.159c5.824,9.095 9.805,19.246 11.716,29.875c1.908,10.594 1.701,21.461 -0.608,31.975c-2.31,10.537 -6.681,20.514 -12.863,29.354c-6.189,8.852 -14.058,16.402 -23.158,22.221c-9.096,5.824 -19.249,9.805 -29.879,11.716c-10.595,1.905 -21.464,1.699 -31.979,-0.608c-10.533,-2.313 -20.507,-6.685 -29.346,-12.863c-2.386,-1.664 -4.681,-3.455 -6.875,-5.366l-7.954,7.95c1.033,3.875 0.037,8.179 -3,11.216l-26.625,26.596c-4.525,4.538 -11.879,4.542 -16.409,0.013c-4.537,-4.529 -4.545,-11.879 -0.016,-16.413l26.625,-26.596c2.925,-2.932 7.206,-4.084 11.208,-3.016l7.975,-7.971c-2.608,-3.015 -4.997,-6.213 -7.146,-9.571c-5.823,-9.098 -9.804,-19.252 -11.716,-29.883c-1.91,-10.592 -1.703,-21.459 0.608,-31.971m1119.16,77.071c-1.67,0 -2.94,-0.459 -3.81,-1.375c-0.88,-0.921 -1.31,-2.209 -1.31,-3.875l-0,-52.134c-0,-1.666 0.42,-2.937 1.25,-3.812c0.83,-0.875 2.04,-1.317 3.63,-1.317c1.58,0 2.81,0.438 3.68,1.317c0.88,0.871 1.32,2.146 1.32,3.812l-0,10.13l-1.25,0c1.32,-4.917 3.87,-8.709 7.62,-11.375c3.75,-2.671 8.38,-4.084 13.88,-4.25c1.25,-0.084 2.25,0.187 3,0.812c0.74,0.625 1.16,1.692 1.25,3.188c0.08,1.416 -0.25,2.545 -1,3.379c-0.75,0.833 -1.92,1.333 -3.5,1.5l-2,0.246c-5.66,0.504 -10.02,2.312 -13.06,5.441c-3.05,3.125 -4.57,7.396 -4.57,12.813l-0,30.258c-0,1.663 -0.44,2.954 -1.31,3.875c-0.88,0.904 -2.15,1.367 -3.82,1.367m-44.25,0.246c-6.42,0 -11.94,-1.271 -16.57,-3.809c-4.63,-2.541 -8.21,-6.15 -10.75,-10.816c-2.54,-4.671 -3.81,-10.255 -3.81,-16.755c-0,-6.337 1.25,-11.858 3.74,-16.562c2.51,-4.708 5.94,-8.4 10.32,-11.067c4.38,-2.666 9.44,-3.996 15.19,-3.996c4.09,0 7.75,0.684 11.01,2.063c3.25,1.375 6.02,3.354 8.31,5.937c2.29,2.584 4.04,5.709 5.25,9.375c1.21,3.671 1.82,7.792 1.82,12.38c-0,1.333 -0.38,2.312 -1.13,2.937c-0.75,0.625 -1.83,0.938 -3.25,0.938l-43.5,0l-0,-6.63l41.13,0l-2,1.63c-0,-4.496 -0.67,-8.313 -2,-11.438c-1.33,-3.125 -3.27,-5.521 -5.82,-7.187c-2.53,-1.667 -5.73,-2.496 -9.56,-2.496c-4.25,0 -7.86,0.975 -10.82,2.933c-2.96,1.963 -5.18,4.667 -6.68,8.125c-1.5,3.458 -2.25,7.479 -2.25,12.067l-0,0.754c-0,7.667 1.85,13.5 5.56,17.5c3.71,4 8.98,6 15.81,6c2.85,-0.002 5.69,-0.381 8.44,-1.129c2.79,-0.75 5.52,-2 8.19,-3.746c1.17,-0.754 2.23,-1.108 3.19,-1.067c0.95,0.046 1.73,0.334 2.31,0.875c0.59,0.536 1,1.23 1.19,1.996c0.21,0.792 0.13,1.65 -0.25,2.563c-0.37,0.92 -1.11,1.708 -2.19,2.375c-2.75,2 -6,3.541 -9.75,4.625c-3.76,1.087 -7.47,1.625 -11.13,1.625Zm-66.26,-0.246c-1.67,0 -2.94,-0.459 -3.81,-1.375c-0.88,-0.921 -1.31,-2.209 -1.31,-3.875l-0,-52.134c-0,-1.666 0.42,-2.937 1.25,-3.812c0.83,-0.875 2.04,-1.317 3.63,-1.317c1.57,0 2.81,0.438 3.68,1.317c0.88,0.871 1.31,2.146 1.31,3.812l-0,10.13l-1.25,0c1.33,-4.917 3.88,-8.709 7.63,-11.375c3.75,-2.671 8.38,-4.084 13.87,-4.25c1.26,-0.084 2.26,0.187 3.01,0.812c0.75,0.625 1.16,1.692 1.25,3.188c0.08,1.416 -0.25,2.545 -1,3.379c-0.75,0.833 -1.92,1.333 -3.5,1.5l-2,0.246c-5.67,0.504 -10.02,2.312 -13.07,5.441c-3.04,3.125 -4.56,7.396 -4.56,12.813l-0,30.258c-0,1.663 -0.44,2.954 -1.31,3.875c-0.88,0.904 -2.15,1.367 -3.82,1.367Zm-49.39,-7.875c3.76,0 7.05,-0.925 9.88,-2.754c2.84,-1.83 5.02,-4.5 6.57,-8c1.53,-3.5 2.31,-7.709 2.31,-12.63c-0,-7.579 -1.69,-13.375 -5.06,-17.375c-3.38,-3.995 -7.94,-5.995 -13.7,-5.995c-3.83,0 -7.14,0.891 -9.93,2.687c-2.8,1.792 -4.96,4.417 -6.51,7.883c-1.54,3.45 -2.31,7.725 -2.31,12.805c-0,7.508 1.71,13.275 5.12,17.316c3.43,4.042 7.97,6.063 13.63,6.063Zm-0,8.121c-5.91,0 -11.04,-1.292 -15.37,-3.875c-4.33,-2.584 -7.69,-6.23 -10.06,-10.938c-2.38,-4.712 -3.56,-10.279 -3.56,-16.696c-0,-4.829 0.66,-9.183 2,-13.062c1.33,-3.875 3.29,-7.188 5.87,-9.938c2.57,-2.742 5.71,-4.895 9.19,-6.312c3.54,-1.459 7.52,-2.184 11.93,-2.184c5.92,0 11.05,1.288 15.38,3.871c4.34,2.584 7.69,6.234 10.07,10.942c2.37,4.708 3.56,10.271 3.56,16.683c-0,4.838 -0.67,9.171 -2,13.009c-1.33,3.829 -3.29,7.141 -5.88,9.937c-2.58,2.796 -5.64,4.917 -9.18,6.375c-3.54,1.458 -7.53,2.188 -11.95,2.188Zm-43.12,0c-6,0 -10.59,-1.83 -13.75,-5.496c-3.18,-3.667 -4.76,-8.921 -4.76,-15.754l-0,-63.759c-0,-1.671 0.42,-2.941 1.25,-3.816c0.83,-0.871 2.08,-1.309 3.75,-1.309c1.58,0 2.83,0.438 3.75,1.309c0.92,0.875 1.37,2.145 1.37,3.816l-0,63.009c-0,4.504 0.9,7.854 2.69,10.062c1.8,2.208 4.44,3.313 7.94,3.313c0.76,0 1.42,-0.042 2,-0.121c0.58,-0.087 1.17,-0.13 1.75,-0.129c0.92,-0.08 1.56,0.129 1.94,0.629c0.37,0.496 0.56,1.5 0.56,3c-0,1.5 -0.33,2.625 -1,3.375c-0.66,0.754 -1.74,1.25 -3.24,1.504c-0.67,0.083 -1.38,0.162 -2.13,0.246c-0.75,0.083 -1.45,0.121 -2.12,0.121Zm-62.76,-8.121c3.83,0 7.15,-0.925 9.94,-2.754c2.8,-1.83 4.96,-4.5 6.5,-8c1.55,-3.5 2.32,-7.709 2.32,-12.63c-0,-7.579 -1.69,-13.375 -5.07,-17.375c-3.38,-3.995 -7.93,-5.995 -13.68,-5.995c-3.76,0 -7.04,0.891 -9.88,2.687c-2.84,1.792 -5.03,4.417 -6.56,7.883c-1.54,3.45 -2.31,7.725 -2.31,12.805c-0,7.508 1.7,13.275 5.12,17.316c3.41,4.042 7.95,6.063 13.62,6.063Zm-23.63,30.379c-1.66,0 -2.91,-0.438 -3.75,-1.313c-0.83,-0.879 -1.25,-2.15 -1.25,-3.812l-0,-74.763c-0,-1.666 0.42,-2.937 1.25,-3.812c0.84,-0.875 2.04,-1.317 3.63,-1.317c1.66,0 2.94,0.438 3.81,1.317c0.88,0.871 1.31,2.146 1.31,3.812l-0,11.88l-1.37,-1.75c1.33,-4.75 3.98,-8.521 7.94,-11.317c3.95,-2.788 8.69,-4.179 14.18,-4.179c5.42,0 10.15,1.266 14.19,3.808c4.04,2.542 7.17,6.167 9.38,10.875c2.21,4.708 3.31,10.317 3.31,16.813c-0,6.416 -1.1,11.983 -3.31,16.695c-2.21,4.709 -5.31,8.355 -9.32,10.938c-4,2.583 -8.75,3.875 -14.25,3.875c-5.49,0 -10.21,-1.396 -14.13,-4.188c-3.91,-2.791 -6.58,-6.52 -8,-11.191l1.5,0l-0,32.508c-0,1.663 -0.45,2.933 -1.37,3.813c-0.91,0.87 -2.16,1.308 -3.75,1.308Zm-70.38,-22.629c-1.05,0.011 -2.07,-0.344 -2.88,-1.004c-0.83,-0.667 -1.27,-1.563 -1.31,-2.688c-0.04,-1.125 0.48,-2.317 1.56,-3.562l21.88,-27.505l-0,5.25l-20.5,-25.62c-1.09,-1.338 -1.61,-2.546 -1.56,-3.634c0.04,-1.083 0.47,-1.954 1.31,-2.621c0.81,-0.66 1.82,-1.015 2.87,-1.004c1.25,0 2.32,0.229 3.19,0.692c0.87,0.458 1.69,1.187 2.44,2.187l17.87,22.63l-3.5,0l18,-22.63c0.76,-1.004 1.55,-1.729 2.38,-2.187c0.83,-0.463 1.87,-0.692 3.13,-0.692c1.16,0 2.14,0.338 2.93,1.004c0.79,0.671 1.21,1.563 1.25,2.688c0.04,1.129 -0.47,2.358 -1.56,3.692l-20.38,25.25l-0,-4.625l21.88,27.129c1,1.25 1.48,2.441 1.44,3.562c-0.04,1.125 -0.48,2.017 -1.31,2.688c-0.84,0.666 -1.83,1.004 -3,1.004c-1.17,0 -2.19,-0.233 -3.07,-0.692c-0.87,-0.454 -1.72,-1.183 -2.56,-2.183l-19.25,-24.254l3.62,0l-19.25,24.254c-0.75,0.917 -1.56,1.625 -2.44,2.125c-0.87,0.492 -1.93,0.746 -3.18,0.746Zm-66.14,-0.75c-1.83,0 -3.22,-0.479 -4.19,-1.438c-0.95,-0.958 -1.44,-2.354 -1.44,-4.187l-0,-76.888c-0,-1.833 0.49,-3.229 1.44,-4.187c0.96,-0.959 2.35,-1.442 4.19,-1.442l46.51,0c1.42,0 2.5,0.379 3.25,1.129c0.75,0.754 1.13,1.792 1.13,3.125c-0,1.417 -0.38,2.5 -1.13,3.25c-0.76,0.75 -1.83,1.129 -3.25,1.129l-42.13,0l-0,30.5l39.51,0c1.41,0 2.5,0.355 3.24,1.063c0.76,0.708 1.12,1.771 1.12,3.192c-0,1.416 -0.36,2.5 -1.12,3.245c-0.75,0.755 -1.83,1.13 -3.24,1.13l-39.51,0l-0,31.75l42.13,0c1.42,0 2.5,0.383 3.25,1.129c0.75,0.754 1.13,1.796 1.13,3.129c-0,1.417 -0.38,2.5 -1.13,3.25c-0.76,0.75 -1.83,1.125 -3.25,1.125l-46.51,0l-0,-0.004Zm-84.1,1.121c-6.42,0 -11.94,-1.271 -16.57,-3.809c-4.62,-2.541 -8.21,-6.15 -10.75,-10.816c-2.537,-4.671 -3.812,-10.255 -3.812,-16.755c-0,-6.337 1.254,-11.858 3.742,-16.562c2.51,-4.708 5.94,-8.4 10.32,-11.067c4.38,-2.666 9.44,-3.996 15.19,-3.996c4.09,0 7.76,0.684 11.01,2.063c3.25,1.375 6.02,3.354 8.31,5.937c2.29,2.584 4.04,5.709 5.25,9.375c1.21,3.671 1.82,7.792 1.82,12.38c-0,1.333 -0.38,2.312 -1.13,2.937c-0.75,0.625 -1.83,0.938 -3.25,0.938l-43.5,0l-0,-6.63l41.13,0l-2,1.63c-0,-4.496 -0.67,-8.313 -2,-11.438c-1.33,-3.125 -3.27,-5.521 -5.81,-7.187c-2.54,-1.667 -5.74,-2.496 -9.57,-2.496c-4.25,0 -7.86,0.975 -10.82,2.933c-2.95,1.963 -5.18,4.667 -6.68,8.125c-1.5,3.458 -2.25,7.479 -2.25,12.067l-0,0.754c-0,7.667 1.85,13.5 5.56,17.5c3.71,4 8.98,6 15.82,6c2.83,0 5.64,-0.375 8.44,-1.129c2.79,-0.75 5.52,-2 8.18,-3.746c1.17,-0.754 2.23,-1.108 3.2,-1.067c0.95,0.046 1.72,0.334 2.31,0.875c0.58,0.537 0.99,1.23 1.19,1.996c0.21,0.792 0.12,1.65 -0.26,2.563c-0.37,0.92 -1.11,1.708 -2.18,2.375c-2.76,2 -6.01,3.541 -9.76,4.625c-3.76,1.087 -7.46,1.625 -11.13,1.625Zm-58.261,0c-6.084,0 -11.338,-1.334 -15.75,-4c-4.421,-2.667 -7.817,-6.396 -10.188,-11.192c-2.375,-4.788 -3.562,-10.354 -3.562,-16.688c-0,-4.833 0.666,-9.17 1.996,-13.004c1.333,-3.833 3.295,-7.104 5.879,-9.812c2.583,-2.709 5.687,-4.771 9.312,-6.188c3.621,-1.412 7.725,-2.121 12.313,-2.121c3,0 6.125,0.455 9.375,1.371c3.25,0.921 6.208,2.5 8.879,4.754c0.829,0.584 1.371,1.292 1.625,2.125c0.25,0.834 0.25,1.646 -0,2.434c-0.236,0.765 -0.667,1.455 -1.25,2.004c-0.588,0.537 -1.313,0.85 -2.188,0.937c-0.875,0.084 -1.775,-0.208 -2.687,-0.875c-2.171,-1.666 -4.379,-2.837 -6.629,-3.5c-2.254,-0.666 -4.417,-1 -6.504,-1c-3.25,0 -6.084,0.521 -8.5,1.563c-2.417,1.042 -4.459,2.517 -6.125,4.433c-1.671,1.921 -2.938,4.296 -3.817,7.125c-0.871,2.838 -1.308,6.129 -1.308,9.879c-0,7.246 1.708,12.98 5.125,17.188c3.416,4.212 8.291,6.317 14.625,6.317c2.087,0 4.233,-0.33 6.437,-1c2.213,-0.667 4.438,-1.83 6.692,-3.505c0.912,-0.666 1.791,-0.954 2.621,-0.875c0.833,0.088 1.541,0.396 2.129,0.946c0.583,0.542 0.979,1.225 1.187,2.059c0.204,0.833 0.188,1.65 -0.066,2.441c-0.25,0.784 -0.788,1.475 -1.625,2.059c-2.671,2.166 -5.584,3.729 -8.755,4.687c-3.158,0.963 -6.241,1.438 -9.241,1.438Zm-91.763,-0.246c-1.666,0 -2.912,-0.459 -3.746,-1.375c-0.829,-0.921 -1.25,-2.209 -1.25,-3.875l-0,-52.134c-0,-1.666 0.421,-2.937 1.25,-3.812c0.834,-0.875 2.042,-1.317 3.625,-1.317c1.584,0 2.813,0.438 3.688,1.317c0.875,0.871 1.312,2.146 1.312,3.812l-0,10.75l-1.375,-1.495c1.75,-4.834 4.6,-8.484 8.567,-10.942c3.958,-2.458 8.521,-3.683 13.688,-3.683c4.833,0 8.854,0.87 12.066,2.62c3.209,1.75 5.609,4.4 7.188,7.938c1.583,3.542 2.375,8.025 2.375,13.442l-0,33.504c-0,1.662 -0.434,2.954 -1.313,3.875c-0.875,0.916 -2.1,1.375 -3.687,1.375c-1.667,0 -2.942,-0.459 -3.809,-1.375c-0.879,-0.921 -1.316,-2.209 -1.316,-3.875l-0,-32.884c-0,-5.666 -1.104,-9.812 -3.313,-12.437c-2.208,-2.621 -5.733,-3.938 -10.562,-3.938c-5.584,0 -10.021,1.73 -13.313,5.192c-3.291,3.458 -4.941,8.063 -4.941,13.808l-0,30.259c-0.009,3.5 -1.717,5.25 -5.134,5.25Zm-44.129,0.246c-6.421,0 -11.937,-1.271 -16.562,-3.809c-4.625,-2.541 -8.209,-6.15 -10.75,-10.816c-2.542,-4.671 -3.817,-10.255 -3.817,-16.755c-0,-6.337 1.25,-11.858 3.75,-16.562c2.5,-4.708 5.937,-8.4 10.317,-11.067c4.375,-2.666 9.437,-3.996 15.187,-3.996c4.083,0 7.746,0.684 11.004,2.063c3.25,1.375 6.021,3.354 8.313,5.937c2.296,2.584 4.041,5.709 5.254,9.375c1.208,3.671 1.812,7.792 1.812,12.38c-0,1.333 -0.375,2.312 -1.129,2.937c-0.75,0.625 -1.829,0.938 -3.246,0.938l-43.504,0l-0,-6.63l41.134,0l-2.005,1.63c-0,-4.496 -0.662,-8.313 -1.995,-11.438c-1.334,-3.125 -3.271,-5.521 -5.817,-7.187c-2.538,-1.667 -5.729,-2.496 -9.563,-2.496c-4.25,0 -7.858,0.975 -10.816,2.933c-2.959,1.963 -5.184,4.667 -6.688,8.125c-1.496,3.458 -2.246,7.479 -2.246,12.067l-0,0.754c-0,7.667 1.85,13.5 5.563,17.5c3.708,4 8.975,6 15.812,6c2.834,0 5.646,-0.375 8.442,-1.129c2.788,-0.75 5.521,-2 8.188,-3.746c1.166,-0.754 2.229,-1.108 3.187,-1.067c0.958,0.046 1.729,0.334 2.313,0.875c0.582,0.535 0.995,1.229 1.187,1.996c0.208,0.792 0.121,1.65 -0.254,2.563c-0.371,0.92 -1.104,1.708 -2.183,2.375c-2.75,2 -5.996,3.541 -9.75,4.625c-3.755,1.083 -7.467,1.625 -11.138,1.625Zm-51.379,-0.496c-1.667,0 -2.917,-0.479 -3.75,-1.442c-0.829,-0.958 -1.246,-2.312 -1.246,-4.062l-0,-51.134c-0,-1.746 0.421,-3.083 1.246,-3.996c0.837,-0.916 2.083,-1.375 3.75,-1.375c1.583,0 2.837,0.459 3.75,1.375c0.917,0.917 1.375,2.25 1.375,3.996l-0,51.134c-0,1.75 -0.438,3.1 -1.313,4.062c-0.875,0.963 -2.145,1.442 -3.812,1.442Zm-37.133,0.496c-6.084,0 -11.338,-1.334 -15.75,-4c-4.421,-2.667 -7.817,-6.396 -10.188,-11.192c-2.375,-4.788 -3.562,-10.354 -3.562,-16.688c-0,-4.833 0.666,-9.17 2,-13.004c1.337,-3.833 3.291,-7.104 5.875,-9.812c2.587,-2.709 5.687,-4.771 9.312,-6.188c3.625,-1.412 7.725,-2.121 12.317,-2.121c3,0 6.121,0.455 9.375,1.371c3.254,0.921 6.212,2.5 8.879,4.754c0.833,0.584 1.375,1.292 1.629,2.125c0.25,0.834 0.25,1.646 -0,2.434c-0.238,0.765 -0.67,1.456 -1.254,2.004c-0.579,0.537 -1.308,0.85 -2.183,0.937c-0.875,0.084 -1.775,-0.208 -2.692,-0.875c-2.167,-1.666 -4.379,-2.837 -6.625,-3.5c-2.254,-0.666 -4.421,-1 -6.504,-1c-3.254,0 -6.084,0.521 -8.504,1.563c-2.417,1.042 -4.459,2.517 -6.125,4.433c-1.667,1.921 -2.938,4.296 -3.813,7.125c-0.871,2.838 -1.312,6.129 -1.312,9.879c-0,7.246 1.708,12.98 5.125,17.188c3.42,4.212 8.291,6.317 14.629,6.317c2.083,0 4.229,-0.33 6.433,-1c2.213,-0.667 4.442,-1.83 6.692,-3.505c0.916,-0.666 1.791,-0.954 2.625,-0.875c0.833,0.088 1.541,0.396 2.125,0.946c0.583,0.542 0.979,1.225 1.187,2.059c0.204,0.833 0.188,1.65 -0.062,2.441c-0.25,0.784 -0.788,1.475 -1.625,2.059c-2.667,2.166 -5.584,3.729 -8.75,4.687c-3.167,0.958 -6.254,1.438 -9.254,1.438Zm-72.755,0c-3.916,0 -7.75,-0.33 -11.504,-0.996c-3.754,-0.667 -7.233,-1.629 -10.441,-2.875c-3.209,-1.25 -6.1,-2.834 -8.688,-4.754c-0.996,-0.746 -1.687,-1.6 -2.062,-2.563c-0.371,-0.954 -0.455,-1.917 -0.25,-2.871c0.208,-0.958 0.625,-1.775 1.254,-2.437c0.598,-0.655 1.424,-1.058 2.308,-1.125c0.921,-0.088 1.917,0.204 3.004,0.871c3.75,2.67 7.75,4.608 12,5.816c4.25,1.209 9.042,1.813 14.379,1.813c7.5,0 13.063,-1.392 16.688,-4.184c3.625,-2.795 5.437,-6.483 5.437,-11.066c-0,-3.75 -1.308,-6.688 -3.937,-8.809c-2.625,-2.129 -7.025,-3.812 -13.192,-5.066l-13.004,-2.625c-7.833,-1.663 -13.687,-4.4 -17.562,-8.192c-3.88,-3.792 -5.813,-8.854 -5.813,-15.187c-0,-3.917 0.788,-7.48 2.371,-10.688c1.583,-3.212 3.792,-5.958 6.625,-8.25c2.833,-2.296 6.212,-4.067 10.129,-5.317c3.917,-1.25 8.25,-1.875 13,-1.875c5.25,0 10.15,0.73 14.688,2.188c4.541,1.458 8.65,3.646 12.312,6.567c0.917,0.745 1.546,1.604 1.875,2.562c0.338,0.958 0.375,1.875 0.125,2.75c-0.25,0.875 -0.687,1.604 -1.312,2.188c-0.625,0.583 -1.417,0.912 -2.38,0.995c-0.958,0.088 -2.02,-0.25 -3.187,-0.995c-3.333,-2.5 -6.792,-4.317 -10.375,-5.438c-3.579,-1.129 -7.546,-1.687 -11.875,-1.687c-4.421,0 -8.233,0.666 -11.442,2c-3.208,1.337 -5.708,3.27 -7.5,5.812c-1.796,2.542 -2.687,5.483 -2.687,8.813c-0,4.004 1.229,7.17 3.687,9.504c2.459,2.337 6.479,4.046 12.067,5.125l13,2.75c8.421,1.75 14.65,4.396 18.692,7.937c4.045,3.546 6.062,8.359 6.062,14.438c-0,3.666 -0.75,7.041 -2.25,10.129c-1.5,3.087 -3.667,5.729 -6.5,7.937c-2.833,2.209 -6.25,3.896 -10.246,5.067c-4,1.158 -8.5,1.738 -13.496,1.738Z" style="fill:#fefefe;fill-rule:nonzero;"/></g><g><path d="M394.596,65.509c-2.083,0 -3.704,-0.563 -4.871,-1.688c-1.167,-1.125 -1.746,-2.65 -1.746,-4.562c-0,-2.004 0.584,-3.525 1.746,-4.563c1.171,-1.041 2.792,-1.562 4.871,-1.562c2.171,0 3.817,0.521 4.942,1.562c1.125,1.042 1.687,2.559 1.687,4.563c0,1.912 -0.566,3.437 -1.687,4.562c-1.125,1.125 -2.771,1.688 -4.942,1.688" style="fill:#0098da;fill-rule:nonzero;"/></g></svg>