<?xml version="1.0" standalone="no"?>
<!DOCTYPE svg PUBLIC "-//W3C//DTD SVG 20010904//EN"
 "http://www.w3.org/TR/2001/REC-SVG-20010904/DTD/svg10.dtd">
<svg version="1.0" xmlns="http://www.w3.org/2000/svg"
 width="700.000000pt" height="700.000000pt" viewBox="0 0 700.000000 700.000000"
 preserveAspectRatio="xMidYMid meet">
<metadata>
Created by potrace 1.14, written by Peter Selinger 2001-2017
</metadata>
<g transform="translate(0.000000,700.000000) scale(0.100000,-0.100000)"
fill="#000000" stroke="none">
<path d="M3457 6744 c-1 -1 -60 -4 -132 -8 -151 -7 -172 -10 -345 -37 -107
-17 -112 -17 -259 -54 -317 -80 -615 -205 -891 -373 -100 -61 -283 -187 -312
-215 -7 -7 -22 -19 -34 -27 -81 -56 -340 -306 -434 -419 -25 -30 -50 -59 -55
-65 -29 -31 -155 -206 -155 -214 0 -6 -3 -12 -8 -14 -18 -8 -171 -264 -222
-373 -37 -81 -89 -193 -100 -220 -35 -86 -109 -306 -125 -375 -43 -185 -71
-327 -81 -415 -3 -33 -8 -69 -10 -80 -8 -44 -18 -227 -18 -350 1 -223 21 -423
65 -640 11 -55 23 -109 25 -120 8 -43 67 -234 96 -315 265 -738 785 -1355
1463 -1737 144 -81 402 -197 532 -239 29 -9 53 -21 53 -26 0 -5 5 -6 10 -3 6
3 27 1 48 -6 20 -6 42 -13 47 -14 16 -4 23 -6 57 -16 18 -6 44 -12 58 -15 14
-2 36 -7 50 -11 31 -9 41 -10 63 -12 10 0 16 -4 14 -8 -3 -5 9 -8 26 -9 33 0
102 -10 147 -19 47 -10 155 -21 305 -30 234 -15 559 7 765 50 14 3 41 8 60 11
136 22 522 144 637 203 68 34 192 91 198 91 5 0 16 6 24 14 9 7 45 28 81 47
36 19 70 37 75 41 6 4 60 40 120 80 107 70 195 133 205 147 3 4 15 14 27 22
107 73 370 337 504 506 290 366 478 740 603 1203 14 52 28 111 31 130 3 19 8
42 10 50 2 8 7 31 10 50 3 19 8 42 10 50 2 8 6 38 10 65 3 28 8 66 10 85 14
102 20 214 20 380 0 205 -7 312 -30 455 -3 17 -8 50 -11 75 -7 50 -44 221 -68
315 -29 114 -99 317 -141 410 -58 129 -136 285 -182 365 -48 82 -184 288 -214
323 -5 7 -35 44 -67 83 -118 148 -265 300 -425 440 -82 72 -303 232 -399 289
-93 55 -244 138 -288 158 -30 13 -75 33 -100 45 -192 89 -494 182 -700 217
-19 3 -60 10 -90 15 -108 19 -171 26 -330 36 -95 5 -230 10 -233 8z"/>
</g>
</svg>
