
<?xml version="1.0" encoding="UTF-8" standalone="no"?>
<svg width="150px" height="124px" viewBox="0 0 150 124" version="1.1" xmlns="http://www.w3.org/2000/svg" xmlns:xlink="http://www.w3.org/1999/xlink">
    <!-- Generator: Sketch 41.2 (35397) - http://www.bohemiancoding.com/sketch -->
    <title>NASA Logo</title>
    <desc>Created with Sketch.</desc>
    <defs></defs>
    <g id="Symbols" stroke="none" stroke-width="1" fill="none" fill-rule="evenodd">
        <g id="Footer" transform="translate(-100.000000, -132.000000)">
            <g id="Footer-Content">
                <g transform="translate(100.000000, 128.000000)">
                    <g id="Footer-Info">
                        <g id="NASA-Logo" transform="translate(0.000000, 4.000000)">
                            <g id="NASA_logo">
                                <g id="Group">
                                    <path d="M131.386364,62 C131.386364,95.9518305 103.466434,123.894915 69.5402098,123.894915 C35.6145105,123.894915 7.69405594,95.9502542 7.69405594,62 C7.69405594,28.0460678 34.9615385,0.105084746 69.5402098,0.105084746 C102.811364,0.105084746 131.386364,28.0476441 131.386364,62" id="Shape" fill="#1A5DAD"></path>
                                    <path d="M83.4912587,94.5762712 C109.913811,105.465153 105.328322,77.9481864 91.2440559,56.8786949 C83.2615385,44.9421186 72.8506993,34.9974237 66.2842657,30.197678 C44.5117133,14.2783898 31.070979,23.9335763 46.4454545,55.3286949 C51.4162762,65.4793559 57.8008741,72.3303559 62.7875874,78.7878136 C66.5958042,83.7177593 74.0134615,86.1863051 71.4005245,88.5260169 C68.4559091,91.1640119 61.3258741,79.528661 61.3258741,79.528661 C56.0601399,73.1657797 51.0409091,66.3773051 45.868007,57.0615424 C34.048951,35.7824068 35.752972,14.0645424 57.1458042,23.5247966 C75.3005245,31.5574746 92.6412587,54.0865932 99.6131119,70.0857458 C102.833444,77.472678 111.613112,106.703576 83.6496503,94.8857458" id="Shape" fill="#FFFFFF"></path>
                                    <path d="M1.32482517,80.3477966 C12.9487762,72.5925424 23.9695804,67.5852542 42.7243007,61.38 C69.0786713,52.6579661 88.9143357,46.7952881 113.250524,34.5403051 C124.143881,29.0559322 143.045979,16.7562881 149.806469,6.06338983 C147.781993,10.2016271 141.51451,18.2563729 138.677098,21.8192712 C105.656119,63.24 35.3187063,60.8913559 1.78898601,80.7770678" id="Shape" fill="#EE293D"></path>
                                    <path d="M18.1877622,50.0744576 C28.8262238,50.1580841 27.7825175,50.0530624 27.9068182,50.1779136 C28.0927815,50.1779136 36.4012238,64.5125237 36.4012238,64.6359983 C36.4012238,64.6972469 36.3391049,59.5419627 36.3391049,53.0945407 C36.3391049,52.3499102 34.2939126,50.1781763 34.3550664,50.1781763 C37.3915699,50.1781763 41.360486,50.2404075 41.360486,50.2404075 C39.8733881,51.9779312 39.5763252,51.8354363 39.5639476,52.9090346 C39.5220157,56.3619092 39.4828217,62.7428651 39.5639476,69.9106956 C39.575507,70.985082 40.3701189,71.3999041 41.6720245,73.2616905 L31.9367098,73.2616905 C28.7745944,67.9874871 22.9802413,58.0932329 23.0090874,58.1210803 C23.0535682,58.1664244 22.8842622,64.3273854 23.0696381,69.2900125 C23.1323444,70.9301753 23.8763864,71.4615888 25.241229,72.9515854 C25.241229,72.9515854 26.8110367,72.9093939 17.6143059,73.0130285 C20.4043059,71.52382 20.033764,69.6626115 20.0324003,69.600559 C19.9320734,62.7427285 20.0116311,56.8795251 20.0116311,53.0943725 C20.0116311,52.4740573 19.9695,52.5352692 18.0483619,50.1780081" id="Shape" fill="#FFFFFF"></path>
                                    <path d="M51.451049,60.6654237 C52.3443881,57.5588034 53.1074476,54.7822542 53.4695979,52.9721695 C53.5309301,52.6616073 52.7876748,51.5451712 51.6095979,50.4278051 L51.5261224,50.2544625 C57.2067168,50.2729154 63.1411573,50.3035424 63.1411573,50.3035424 C64.6911923,54.0888 68.2252133,64.6985763 70.8913322,71.2143559 C71.5963846,72.9365898 72.8134825,73.2616695 72.8134825,73.2616695 C67.9772937,73.2004208 59.0024685,73.241861 59.0501958,73.2004208 C61.4675035,71.0272683 61.157486,71.0272683 60.1034476,67.863692 L52.539986,67.863692 C50.989951,71.4616886 53.0230175,73.151031 53.2832727,73.1378954 C51.5617867,73.2268234 45.7198112,73.1378954 45.7198112,73.1378954 C48.8819266,70.9033208 48.6952133,70.221531 48.6952133,70.221531 C49.5640594,67.1257344 50.570528,63.7341242 51.451542,60.663548 L54.5547063,60.6640734 C53.8880455,62.8060158 53.2214371,64.9461717 53.2214371,64.9461717 L59.2371713,64.9461717 L55.8882902,56.3828158 C55.8882902,56.3828158 55.2216294,58.5237598 54.5548112,60.6639683 L51.4516469,60.6634429" id="Shape" fill="#FFFFFF"></path>
                                    <path d="M103.410839,60.9754237 C104.302448,57.8695915 105.066451,55.0922542 105.427815,53.2811186 C105.488953,52.9721275 104.744895,51.8556966 103.567605,50.7375424 L103.483542,50.564988 C109.16571,50.5834408 115.101724,50.6140678 115.101724,50.6140678 C116.649399,54.3993254 120.184206,65.0096271 122.849801,71.5248814 C123.554066,73.2479034 124.771164,73.5729831 124.771164,73.5729831 C119.937336,73.5101634 110.962248,73.5531746 111.008402,73.5101634 C113.427283,71.3393753 113.117266,71.3393753 112.063227,68.1744854 L104.498192,68.1744854 C102.948,71.7732176 104.980243,73.4618244 105.24064,73.4497397 C103.52057,73.5378795 97.6777028,73.4497397 97.6777028,73.4497397 C100.839031,71.2151651 100.653682,70.5325871 100.653682,70.5325871 C101.522528,67.4362125 102.529154,64.0457058 103.410955,60.9756549 L106.513332,60.9756549 C105.84515,63.1173871 105.181427,65.2583312 105.181427,65.2583312 L111.194014,65.2583312 L107.845343,56.6949753 C107.845343,56.6949753 107.180832,58.8351312 106.513437,60.9754973 L103.411059,60.9754973" id="Shape" fill="#FFFFFF"></path>
                                    <path d="M93.6293706,55.889322 C93.5053269,51.4823831 93.6293706,50.0555424 93.6293706,50.0555424 C91.7064336,51.6075915 92.676451,51.4096644 87.8638112,50.6144356 C73.9940559,48.3217492 72.9372378,61.2936729 80.484965,64.2034695 C86.8206294,66.6465322 89.0659091,67.1251407 88.1103147,69.4149373 C87.8003129,70.1610915 82.0347902,72.8909831 76.0835664,67.3682017 L76.206042,75.0625068 C76.9500629,74.2949153 78.9976154,72.8909305 78.9976154,72.8909305 C79.0587535,72.8909305 85.4486643,75.7113 91.2105524,72.7658797 C100.078385,68.2369898 95.652493,60.9060153 86.1891713,57.9983203 C78.3146958,55.5780085 85.7551259,49.9309644 93.5664441,55.9507966" id="Shape" fill="#FFFFFF"></path>
                                    <path d="M70.4108392,5.7260678 C70.4108392,6.00364915 70.1843182,6.2313678 69.9072325,6.2313678 C69.6317203,6.2313678 69.4036259,6.00364915 69.4036259,5.7260678 C69.4036259,5.45084034 69.6317203,5.22233356 69.9072325,5.22233356 C70.1843182,5.22233356 70.4108392,5.45084034 70.4108392,5.7260678" id="Shape" fill="#FFFFFF"></path>
                                    <path d="M73.9038462,13.3667797 C73.9038462,13.7071807 73.6220612,13.9870949 73.2838636,13.9870949 C72.9432955,13.9870949 72.6630944,13.7071597 72.6630944,13.3667797 C72.6630944,13.0271615 72.9433112,12.7472 73.2838636,12.7472 C73.6220822,12.7472 73.9038462,13.0271405 73.9038462,13.3667797" id="Shape" fill="#FFFFFF"></path>
                                    <path d="M82.9667832,25.854 C82.9667832,26.1938125 82.6875472,26.4743153 82.3468007,26.4743153 C82.0077955,26.4743153 81.7268182,26.1937863 81.7268182,25.854 C81.7268182,25.513599 81.9870472,25.2328966 82.3278147,25.2328966 C82.6683829,25.2328966 82.9668357,25.51362 82.9668357,25.854" id="Shape" fill="#FFFFFF"></path>
                                    <path d="M68.3968531,17.6715763 C68.3968531,17.9483747 68.1703269,18.1753053 67.8932465,18.1753053 C67.6167535,18.1753053 67.3886591,17.9483695 67.3886591,17.6715763 C67.3886591,17.3953663 67.6167535,17.1668647 67.8932465,17.1668647 C68.1703269,17.1668647 68.3968531,17.3953715 68.3968531,17.6715763" id="Shape" fill="#FFFFFF"></path>
                                    <path d="M73.8251748,20.5419661 C73.8251748,20.8171936 73.5976731,21.0456951 73.3221608,21.0456951 C73.0458619,21.0456951 72.8177675,20.8171883 72.8177675,20.5419661 C72.8177675,20.2659558 73.0458619,20.0380375 73.3221608,20.0380375 C73.5976731,20.0380375 73.8251748,20.2659558 73.8251748,20.5419661" id="Shape" fill="#FFFFFF"></path>
                                    <path d="M66.770979,12.5129661 C66.770979,12.8535615 66.4909563,13.1332814 66.1509965,13.1332814 C65.8112098,13.1332814 65.531014,12.8535405 65.531014,12.5129661 C65.531014,12.1725651 65.8112308,11.8918627 66.1509965,11.8918627 C66.4909773,11.8918627 66.770979,12.1725861 66.770979,12.5129661" id="Shape" fill="#FFFFFF"></path>
                                    <path d="M58.5576923,17.5165763 C58.5576923,17.7933747 58.3303846,18.0210934 58.0533042,18.0210934 C57.7770052,18.0210934 57.5496976,17.7933747 57.5496976,17.5165763 C57.5496976,17.2403663 57.7770052,17.0118647 58.0533042,17.0118647 C58.3303846,17.0118647 58.5576923,17.2403715 58.5576923,17.5165763" id="Shape" fill="#FFFFFF"></path>
                                    <path d="M60.0262238,18.5238136 C60.0262238,18.8015946 59.7989161,19.0293132 59.5218357,19.0293132 C59.2455367,19.0293132 59.0174476,18.8015946 59.0174476,18.5238136 C59.0174476,18.2478032 59.2455367,18.0208675 59.5218357,18.0208675 C59.7989161,18.0208675 60.0262238,18.2478032 60.0262238,18.5238136" id="Shape" fill="#FFFFFF"></path>
                                    <path d="M61.5,19.5326271 C61.5,19.8102085 61.2726871,20.0379271 60.9961941,20.0379271 C60.7199003,20.0379271 60.4918059,19.8102085 60.4918059,19.5326271 C60.4918059,19.2573997 60.7199003,19.029681 60.9961941,19.029681 C61.2726871,19.029681 61.5,19.2573997 61.5,19.5326271" id="Shape" fill="#FFFFFF"></path>
                                    <path d="M59.2552448,21.4724915 C59.2552448,21.74929 59.0263689,21.9770086 58.7508514,21.9770086 C58.473771,21.9770086 58.2462692,21.74929 58.2462692,21.4724915 C58.2462692,21.1964812 58.473771,20.9687625 58.7508514,20.9687625 C59.0263689,20.9687625 59.2552448,21.1964812 59.2552448,21.4724915" id="Shape" fill="#FFFFFF"></path>
                                    <path d="M47.551049,29.6937966 C47.551049,29.9705951 47.3229545,30.1975308 47.0466608,30.1975308 C46.7703619,30.1975308 46.5422727,29.9705951 46.5422727,29.6937966 C46.5422727,29.4169981 46.7703671,29.1890851 47.0466608,29.1890851 C47.3229598,29.1890851 47.551049,29.4170034 47.551049,29.6937966" id="Shape" fill="#FFFFFF"></path>
                                    <path d="M49.7202797,32.3319492 C49.7202797,32.6081592 49.4921853,32.8358778 49.2158916,32.8358778 C48.9395927,32.8358778 48.7115035,32.6081592 48.7115035,32.3319492 C48.7115035,32.0543678 48.9395979,31.827432 49.2158916,31.827432 C49.4921906,31.827432 49.7202797,32.0543678 49.7202797,32.3319492" id="Shape" fill="#FFFFFF"></path>
                                    <path d="M47.9958042,74.9149153 C47.9958042,75.1919081 47.7684965,75.4188439 47.4920035,75.4188439 C47.2157045,75.4188439 46.9883969,75.1919081 46.9883969,74.9149153 C46.9883969,74.6389049 47.2157045,74.4103981 47.4920035,74.4103981 C47.7684965,74.4103981 47.9958042,74.6389049 47.9958042,74.9149153" id="Shape" fill="#FFFFFF"></path>
                                    <path d="M48.3057692,86.6633898 C48.3057692,87.0037908 48.0255524,87.2829695 47.6857867,87.2829695 C47.3458059,87.2829695 47.0658042,87.0038171 47.0658042,86.6633898 C47.0658042,86.3227944 47.3458269,86.0430746 47.6857867,86.0430746 C48.0255734,86.0430746 48.3057692,86.3228154 48.3057692,86.6633898" id="Shape" fill="#FFFFFF"></path>
                                    <path d="M41.6391608,92.6794915 C41.6391608,92.954719 41.4118531,93.1832205 41.1363357,93.1832205 C40.8600367,93.1832205 40.6319476,92.954719 40.6319476,92.6794915 C40.6319476,92.4019102 40.860042,92.17478 41.1363357,92.17478 C41.4118479,92.17478 41.6391608,92.4019102 41.6391608,92.6794915" id="Shape" fill="#FFFFFF"></path>
                                    <path d="M33.6576923,95.1174576 C33.6576923,95.4578586 33.3759073,95.7370373 33.0369231,95.7370373 C32.6969423,95.7370373 32.4169406,95.4578849 32.4169406,95.1174576 C32.4169406,94.7762685 32.6969633,94.4963542 33.0369231,94.4963542 C33.3759283,94.4963542 33.6576923,94.7762895 33.6576923,95.1174576" id="Shape" fill="#FFFFFF"></path>
                                    <path d="M32.0297203,89.6898305 C32.0297203,90.0286658 31.7496976,90.3094102 31.4105245,90.3094102 C31.0707378,90.3094102 30.790542,90.0286868 30.790542,89.6898305 C30.790542,89.3486466 31.0707587,89.0687271 31.4105245,89.0687271 C31.7497238,89.0687271 32.0297203,89.3486676 32.0297203,89.6898305" id="Shape" fill="#FFFFFF"></path>
                                    <path d="M31.1008741,93.1418644 C31.1008741,93.4186629 30.8727797,93.6455986 30.596486,93.6455986 C30.3201871,93.6455986 30.0918986,93.4186629 30.0918986,93.1418644 C30.0918986,92.8658541 30.3201871,92.6373473 30.596486,92.6373473 C30.872785,92.6373473 31.1008741,92.8658541 31.1008741,93.1418644" id="Shape" fill="#FFFFFF"></path>
                                    <path d="M25.1318182,90.2730508 C25.1318182,90.5490612 24.9045105,90.777568 24.628993,90.777568 C24.3519126,90.777568 24.1244056,90.5490612 24.1244056,90.2730508 C24.1244056,89.9970353 24.3519126,89.7691222 24.628993,89.7691222 C24.9045052,89.7691222 25.1318182,89.9970353 25.1318182,90.2730508" id="Shape" fill="#FFFFFF"></path>
                                    <path d="M45.9797203,99.9671186 C45.9797203,100.244112 45.7714196,100.47183 45.4959073,100.47183 C45.2196084,100.47183 44.9723129,100.244112 44.9723129,99.9671186 C44.9723129,99.6911083 45.2004073,99.4626015 45.4759196,99.4626015 C45.753,99.4626015 45.9797203,99.6911083 45.9797203,99.9671186" id="Shape" fill="#FFFFFF"></path>
                                    <path d="M52.2587413,95.3538983 C52.2587413,95.6950875 51.9985122,95.9750017 51.6577448,95.9750017 C51.317958,95.9750017 51.0187238,95.6950664 51.0187238,95.3538983 C51.0187238,95.0148739 51.2987465,94.7343186 51.6387063,94.7343186 C51.9792797,94.7343186 52.2587413,95.0148476 52.2587413,95.3538983" id="Shape" fill="#FFFFFF"></path>
                                    <path d="M52.9772727,101.285932 C52.9772727,101.562731 52.7291958,101.791432 52.454465,101.791432 C52.1773846,101.791432 51.9500769,101.562731 51.9500769,101.285932 C51.9500769,101.009922 52.1773846,100.782986 52.454465,100.782986 C52.7291958,100.782986 52.9772727,101.009922 52.9772727,101.285932" id="Shape" fill="#FFFFFF"></path>
                                    <path d="M78.7814685,95.6218644 C78.7814685,95.8980692 78.5541608,96.1265759 78.2786486,96.1265759 C78.0007815,96.1265759 77.7734738,95.8980692 77.7734738,95.6218644 C77.7734738,95.3450659 78.0007815,95.1181302 78.2786486,95.1181302 C78.5541608,95.1181302 78.7814685,95.3450659 78.7814685,95.6218644" id="Shape" fill="#FFFFFF"></path>
                                    <path d="M66.770979,99.8883051 C66.770979,100.165098 66.5444528,100.392034 66.2673724,100.392034 C65.9918549,100.392034 65.7637657,100.165098 65.7637657,99.8883051 C65.7637657,99.6122895 65.9918549,99.383788 66.2673724,99.383788 C66.5444528,99.383788 66.770979,99.6122895 66.770979,99.8883051" id="Shape" fill="#FFFFFF"></path>
                                    <path d="M99.0891608,106.02 C99.0891608,106.296047 98.8610664,106.523808 98.5855542,106.523808 C98.3084738,106.523808 98.0803794,106.296047 98.0803794,106.02 C98.0803794,105.743159 98.3084738,105.51542 98.5855542,105.51542 C98.8610664,105.51542 99.0891608,105.743159 99.0891608,106.02" id="Shape" fill="#FFFFFF"></path>
                                    <path d="M101.722028,82.1657627 C101.722028,82.5061637 101.442792,82.7868661 101.102045,82.7868661 C100.761472,82.7868661 100.482063,82.5061427 100.482063,82.1657627 C100.482063,81.825162 100.761493,81.5446593 101.102045,81.5446593 C101.442813,81.5446593 101.722028,81.8251831 101.722028,82.1657627" id="Shape" fill="#FFFFFF"></path>
                                    <path d="M96.7657343,85.5389831 C96.7657343,85.8151878 96.5384266,86.0436946 96.2605594,86.0436946 C95.9848531,86.0436946 95.7575402,85.8151878 95.7575402,85.5389831 C95.7575402,85.2621846 95.9848531,85.0352488 96.2605594,85.0352488 C96.5384266,85.0352488 96.7657343,85.2621846 96.7657343,85.5389831" id="Shape" fill="#FFFFFF"></path>
                                    <path d="M101.648601,86.5110169 C101.648601,86.851418 101.369171,87.1321203 101.028619,87.1321203 C100.687857,87.1321203 100.408636,86.8513969 100.408636,86.5110169 C100.408636,86.1712044 100.687878,85.8907017 101.028619,85.8907017 C101.369192,85.8907017 101.648601,86.1712307 101.648601,86.5110169" id="Shape" fill="#FFFFFF"></path>
                                    <path d="M96.7657343,92.5218644 C96.7657343,92.7978747 96.5384266,93.0255934 96.2605594,93.0255934 C95.9848531,93.0255934 95.7575402,92.7978747 95.7575402,92.5218644 C95.7575402,92.2450659 95.9848531,92.0171476 96.2605594,92.0171476 C96.5384266,92.0171476 96.7657343,92.2450659 96.7657343,92.5218644" id="Shape" fill="#FFFFFF"></path>
                                    <path d="M109.395105,78.7925424 C109.395105,79.0693408 109.167016,79.2972592 108.891304,79.2972592 C108.615792,79.2972592 108.388484,79.0693408 108.388484,78.7925424 C108.388484,78.5157492 108.615792,78.2888134 108.891304,78.2888134 C109.167016,78.2888134 109.395105,78.5157492 109.395105,78.7925424" id="Shape" fill="#FFFFFF"></path>
                                    <path d="M110.617133,81.8557627 C110.617133,82.1969466 110.358472,82.4768661 110.01792,82.4768661 C109.677157,82.4768661 109.378689,82.1969256 109.378689,81.8557627 C109.378689,81.515162 109.658119,81.2361831 109.99715,81.2361831 C110.337724,81.2361831 110.617133,81.5151358 110.617133,81.8557627" id="Shape" fill="#FFFFFF"></path>
                                    <path d="M119.318182,85.5022034 C119.318182,85.8426044 119.04032,86.1225186 118.698199,86.1225186 C118.357437,86.1225186 118.078217,85.8425834 118.078217,85.5022034 C118.078217,85.1625853 118.357458,84.8811 118.698199,84.8811 C119.040341,84.8811 119.318182,85.1626063 119.318182,85.5022034" id="Shape" fill="#FFFFFF"></path>
                                    <path d="M110.480769,91.980678 C110.480769,92.2566936 110.251107,92.4846066 109.9754,92.4846066 C109.699883,92.4846066 109.471794,92.2566936 109.471794,91.980678 C109.471794,91.7030966 109.699883,91.4761608 109.9754,91.4761608 C110.251107,91.4761608 110.480769,91.7030966 110.480769,91.980678" id="Shape" fill="#FFFFFF"></path>
                                    <path d="M116.061189,86.7054237 C116.061189,86.9822169 115.833881,87.2091527 115.558369,87.2091527 C115.282857,87.2091527 115.054762,86.9822169 115.054762,86.7054237 C115.054762,86.4286253 115.282857,86.2009066 115.558369,86.2009066 C115.833881,86.2009066 116.061189,86.4286253 116.061189,86.7054237" id="Shape" fill="#FFFFFF"></path>
                                    <path d="M115.033217,94.8494915 C115.033217,95.1264844 114.805909,95.3534202 114.530397,95.3534202 C114.25253,95.3534202 114.025222,95.1264844 114.025222,94.8494915 C114.025222,94.5734812 114.25253,94.3449744 114.530397,94.3449744 C114.805909,94.3449744 115.033217,94.5734812 115.033217,94.8494915" id="Shape" fill="#FFFFFF"></path>
                                    <path d="M117.398601,81.3145763 C117.398601,81.7401747 117.047843,82.0897864 116.623217,82.0897864 C116.198386,82.0897864 115.848409,81.740159 115.848409,81.3145763 C115.848409,80.8889778 116.198386,80.5393661 116.623217,80.5393661 C117.047853,80.5393661 117.398601,80.8889936 117.398601,81.3145763" id="Shape" fill="#FFFFFF"></path>
                                    <polyline id="Shape" fill="#FFFFFF" points="116.622378 78.9501695 116.391152 81.0828644 114.278565 81.3158793 116.40804 81.5475281 116.641421 83.7589315 116.875002 81.5475281 118.96682 81.2768141 116.855806 81.0828644 116.622425 78.9501695"></polyline>
                                    <path d="M111.97028,94.8074576 C111.97028,95.2330614 111.620497,95.5826678 111.195682,95.5826678 C110.770851,95.5826678 110.420297,95.2330403 110.420297,94.8074576 C110.420297,94.3818592 110.770867,94.0322475 111.195682,94.0322475 C111.620512,94.0322475 111.97028,94.3818749 111.97028,94.8074576" id="Shape" fill="#FFFFFF"></path>
                                    <polyline id="Shape" fill="#FFFFFF" points="111.199301 92.4430508 110.965914 94.5757458 108.854691 94.8087659 110.9849 95.0419805 111.218476 97.2518602 111.451862 95.0419805 113.543103 94.7704836 111.430516 94.5757458 111.19929 92.4430508"></polyline>
                                    <path d="M54.1573427,30.7399153 C54.1573427,31.1655137 53.8075647,31.5151254 53.3827448,31.5151254 C52.9563409,31.5151254 52.6073601,31.165498 52.6073601,30.7399153 C52.6073601,30.3143168 52.9563566,29.9647051 53.3827448,29.9647051 C53.8075752,29.9647051 54.1573427,30.3143325 54.1573427,30.7399153" id="Shape" fill="#FFFFFF"></path>
                                    <polyline id="Shape" fill="#FFFFFF" points="53.3811189 28.3744576 53.1483199 30.5069949 51.0357325 30.7402095 53.1675157 30.9718531 53.4003094 33.183309 53.6321276 30.9718531 55.7249423 30.7019271 53.6123549 30.5069897 53.3811294 28.3744524"></polyline>
                                    <path d="M82.9877622,11.9707288 C82.9877622,12.3963273 82.6371976,12.7467271 82.2123776,12.7467271 C81.7875472,12.7467271 81.4393531,12.3963115 81.4393531,11.9707288 C81.4393531,11.5451303 81.7875682,11.1947305 82.2123776,11.1947305 C82.637208,11.1947305 82.9877622,11.5451461 82.9877622,11.9707288" id="Shape" fill="#FFFFFF"></path>
                                    <polyline id="Shape" fill="#FFFFFF" points="82.2115385 9.60316949 81.9803077 11.7364949 79.8677203 11.9697095 81.9995035 12.2027297 82.230729 14.4135551 82.4641154 12.2027297 84.5561434 11.9304498 82.4435559 11.7364949 82.2115437 9.60316949"></polyline>
                                    <path d="M47.9370629,107.22322 C47.9370629,107.648819 47.5872797,107.998483 47.162465,107.998483 C46.7360664,107.998483 46.3862937,107.648814 46.3862937,107.22322 C46.3862937,106.798389 46.7360769,106.447169 47.162465,106.447169 C47.5872955,106.447169 47.9370629,106.798368 47.9370629,107.22322" id="Shape" fill="#FFFFFF"></path>
                                    <polyline id="Shape" fill="#FFFFFF" points="47.1807692 104.853559 46.948951 106.986885 44.8369406 107.219999 46.9681469 107.452352 47.2007465 109.663178 47.4327587 107.452352 49.5253636 107.181665 47.4135629 106.986885 47.1807692 104.853559"></polyline>
                                    <path d="M149.800699,6.06391525 C140.375874,34.0753051 102.618881,55.7054237 70.8356643,76.3551017 C51.6613636,88.815 32.6244755,103.157492 19.5188811,115.362034 C16.0643706,118.580517 20.2227797,114.158866 18.8988986,115.517712 C37.1884091,94.4203727 58.2272203,81.8543388 69.8532692,73.9451354 C89.5153322,60.5631185 100.698724,57.1904236 134.620752,25.8883049" id="Shape" fill="#EE293D"></path>
                                    <path d="M9.18618881,75.4613559 C5.80143357,77.1201712 2.76923077,78.7593356 0.196678322,80.3593034 L1.76202797,80.9299661 C4.01181818,79.5418492 6.71302448,78.0940966 9.55835664,76.8180525" id="Shape" fill="#EE293D"></path>
                                    <path d="M27.0561189,106.808136 C23.9619755,109.51349 20.763986,112.401271 17.5562937,115.428237 L17.4146171,117.567027 C20.3515752,114.536383 23.9595472,111.262993 28.1233584,107.789942" id="Shape" fill="#EE293D"></path>
                                    <path d="M83.4912587,94.5762712 C109.913811,105.465153 105.328322,77.9481864 91.2440559,56.8786949 C83.2615385,44.9421186 73.4171329,35.4729322 66.2842657,30.197678 C57.9555944,24.0370847 57.1426573,23.5263729 57.1426573,23.5263729 C75.7416084,32.3697797 92.6381119,54.0876441 99.609965,70.087322 C102.830297,77.4742542 111.609965,106.705153 83.6465035,94.887322" id="Shape" fill="#FFFFFF"></path>
                                </g>
                            </g>
                        </g>
                    </g>
                </g>
            </g>
        </g>
    </g>
</svg>